<?xml version="1.0" encoding="UTF-8"?>
<svg xmlns="http://www.w3.org/2000/svg" width="1024" height="1024"
     viewBox="0 0 1024 1024" role="img" aria-labelledby="title desc">
  <title id="title">18+ single-person icon</title>
  <desc id="desc">White single-person emblem with 18+ age label. Transparent background. The age-label digits have identical size and coordinates in both icons. All artwork is vector paths.</desc>
  <g fill="#FFFFFF" fill-rule="evenodd">
    <path id="emblem" d="M247.59 680.527 C240.324 677.535 234.76 672.253 231.239 665.005 C228.898 660.185 228.582 658.38 228.702 650.5 C228.924 635.911 233.598 610.371 238.677 596 C242.911 584.021 247.271 573.69 251.548 565.5 C278.527 513.847 327.1 476.049 386.146 460.761 L397.792 457.746 404.646 463.255 C425.814 480.272 454.035 493.314 482 499.003 C512.026 505.112 549.531 501.417 580 489.349 C596.026 483.001 615.434 471.655 627.116 461.805 L631.746 457.901 641.623 460.414 C654.133 463.598 663.069 466.686 674.75 471.862 C732.109 497.277 772.336 545.133 787.926 606.5 C791.255 619.602 794.211 639.82 794.36 650.5 C794.487 659.559 794.249 660.97 791.836 665.5 C788.412 671.927 782.807 677.3 776.5 680.201 L771.5 682.5 512.5 682.73 L253.5 682.961 247.59 680.527 Z M492.503 466.9 C476.657 464.951 460.702 460.153 444.044 452.327 C411.566 437.068 384.409 411.172 367.144 379 C358.553 362.992 352.058 342.12 349.905 323.601 C348.274 309.574 349.236 286.062 351.935 274 C358.138 246.278 368.335 225.777 386.817 203.872 C400.722 187.392 421.67 171.44 442.5 161.468 C460.988 152.617 477.238 147.992 498.66 145.482 C530.539 141.748 565.317 148.858 594.183 165.01 C637.508 189.254 665.728 228.862 674.687 278 C677.023 290.807 676.998 316.919 674.638 330 C669.844 356.575 659.511 380.497 643.585 401.886 C635.298 413.016 618.136 429.625 606 438.259 C588.346 450.819 565.946 460.319 542.88 465.028 C530.77 467.501 505.133 468.453 492.503 466.9 Z"/>
    <g id="age-label">
      <path id="age-digits" d="M481.5 937.301 C466.368 935.928 450.152 930.545 438.791 923.123 C425.513 914.449 417.255 902.562 414.937 888.786 C411.135 866.194 426.968 842.74 450.75 835.735 C454.738 834.56 458 833.29 458 832.911 C458 832.532 456.538 831.943 454.75 831.602 C449.214 830.545 441.322 826.338 436.447 821.845 C426.405 812.588 421.903 802.609 421.785 789.347 C421.575 765.819 439.141 746.835 468.5 738.858 C475.2 737.038 479.182 736.685 493 736.685 C512.531 736.685 520.006 738.275 534.873 745.595 C566.281 761.057 574.557 795.79 552.376 819.045 C546.773 824.918 535.048 832 530.925 832 C526.638 832 528.558 833.854 534.516 835.467 C559.96 842.354 576.867 869.132 570.61 892.632 C562.702 922.331 524.97 941.245 481.5 937.301 Z M507.274 901.787 C513.451 899.129 520.303 891.56 521.992 885.527 C524.481 876.638 521.665 865.76 515.342 859.84 C509.643 854.505 504.238 852.528 494.334 852.156 C486.066 851.846 484.565 852.083 479.021 854.571 C471.623 857.891 466.55 863.408 464.477 870.388 C462.61 876.675 462.622 879.363 464.543 885.833 C466.267 891.639 470.31 896.793 475.807 900.19 C483.902 905.193 497.725 905.895 507.274 901.787 Z M505.294 815.732 C513.965 812.085 519.025 803.822 518.978 793.384 C518.949 786.935 516.221 781.201 511.094 776.812 C503.564 770.367 491.028 768.781 481.161 773.026 C471.619 777.131 466.236 786.307 467.303 796.647 C469.086 813.922 487.547 823.196 505.294 815.732 Z M342 856.893 C342 787.393 341.832 778.85 340.479 779.37 C339.642 779.691 329.511 786.489 317.966 794.477 C306.42 802.465 296.755 809 296.487 809 C296.219 809 296.017 799.888 296.038 788.75 L296.077 768.5 318.288 753.305 L340.5 738.111 364 738.305 L387.5 738.5 387.755 836.75 L388.01 935 365.005 935 L342 935 342 856.893 Z"/>
      <path id="age-sign" d="M643.2 901.8 C642.34 900.94 642 894.422 642 878.8 L642 857 620.122 857 C602.74 857 598.01 856.716 597.099 855.62 C596.307 854.665 596.038 848.572 596.227 835.87 L596.5 817.5 619.231 817.231 L641.963 816.963 642.231 794.231 L642.5 771.5 662 771.5 L681.5 771.5 681.769 794.231 L682.037 816.963 704.769 817.231 L727.5 817.5 727.773 835.87 C727.962 848.572 727.693 854.665 726.901 855.62 C725.99 856.716 721.26 857 703.878 857 L682 857 682 878.8 C682 894.422 681.66 900.94 680.8 901.8 C679.958 902.642 674.356 903 662 903 C649.644 903 644.042 902.642 643.2 901.8 Z"/>
    </g>
  </g>
</svg>
